<svg xmlns="http://www.w3.org/2000/svg" class="qr-svg qrcode" viewBox="0 0 41 41" preserveAspectRatio="xMidYMid">
<defs>
	<style><![CDATA[
		.dark{fill: #000000;}
		.light{fill: #eaeaea;}
		.logo{fill: #000000;}
	]]></style>
</defs>
<path class="qr-darkmodule dark qrcode" d="M12 29 h1 v1 h-1Z"/>
<path class="qr-data-dark dark qrcode" d="M14 4 h1 v1 h-1Z M16 4 h1 v1 h-1Z M18 4 h1 v1 h-1Z M21 4 h1 v1 h-1Z M22 4 h1 v1 h-1Z M23 4 h1 v1 h-1Z M27 4 h1 v1 h-1Z M28 4 h1 v1 h-1Z M14 5 h1 v1 h-1Z M15 5 h1 v1 h-1Z M17 5 h1 v1 h-1Z M19 5 h1 v1 h-1Z M20 5 h1 v1 h-1Z M21 5 h1 v1 h-1Z M23 5 h1 v1 h-1Z M26 5 h1 v1 h-1Z M28 5 h1 v1 h-1Z M13 6 h1 v1 h-1Z M14 6 h1 v1 h-1Z M16 6 h1 v1 h-1Z M17 6 h1 v1 h-1Z M21 6 h1 v1 h-1Z M22 6 h1 v1 h-1Z M24 6 h1 v1 h-1Z M25 6 h1 v1 h-1Z M27 6 h1 v1 h-1Z M28 6 h1 v1 h-1Z M13 7 h1 v1 h-1Z M21 7 h1 v1 h-1Z M23 7 h1 v1 h-1Z M24 7 h1 v1 h-1Z M26 7 h1 v1 h-1Z M27 7 h1 v1 h-1Z M28 7 h1 v1 h-1Z M13 8 h1 v1 h-1Z M17 8 h1 v1 h-1Z M18 8 h1 v1 h-1Z M19 8 h1 v1 h-1Z M20 8 h1 v1 h-1Z M23 8 h1 v1 h-1Z M25 8 h1 v1 h-1Z M27 8 h1 v1 h-1Z M28 8 h1 v1 h-1Z M13 9 h1 v1 h-1Z M15 9 h1 v1 h-1Z M16 9 h1 v1 h-1Z M18 9 h1 v1 h-1Z M20 9 h1 v1 h-1Z M24 9 h1 v1 h-1Z M25 9 h1 v1 h-1Z M26 9 h1 v1 h-1Z M13 11 h1 v1 h-1Z M14 11 h1 v1 h-1Z M15 11 h1 v1 h-1Z M18 11 h1 v1 h-1Z M22 11 h1 v1 h-1Z M23 11 h1 v1 h-1Z M25 11 h1 v1 h-1Z M26 11 h1 v1 h-1Z M13 12 h1 v1 h-1Z M14 12 h1 v1 h-1Z M15 12 h1 v1 h-1Z M18 12 h1 v1 h-1Z M20 12 h1 v1 h-1Z M21 12 h1 v1 h-1Z M22 12 h1 v1 h-1Z M24 12 h1 v1 h-1Z M26 12 h1 v1 h-1Z M27 12 h1 v1 h-1Z M28 12 h1 v1 h-1Z M4 13 h1 v1 h-1Z M5 13 h1 v1 h-1Z M7 13 h1 v1 h-1Z M11 13 h1 v1 h-1Z M12 13 h1 v1 h-1Z M13 13 h1 v1 h-1Z M14 13 h1 v1 h-1Z M17 13 h1 v1 h-1Z M18 13 h1 v1 h-1Z M22 13 h1 v1 h-1Z M23 13 h1 v1 h-1Z M27 13 h1 v1 h-1Z M29 13 h1 v1 h-1Z M30 13 h1 v1 h-1Z M34 13 h1 v1 h-1Z M36 13 h1 v1 h-1Z M6 14 h1 v1 h-1Z M7 14 h1 v1 h-1Z M9 14 h1 v1 h-1Z M28 14 h1 v1 h-1Z M29 14 h1 v1 h-1Z M31 14 h1 v1 h-1Z M34 14 h1 v1 h-1Z M35 14 h1 v1 h-1Z M5 15 h1 v1 h-1Z M11 15 h1 v1 h-1Z M13 15 h1 v1 h-1Z M33 15 h1 v1 h-1Z M34 15 h1 v1 h-1Z M4 16 h1 v1 h-1Z
M6 16 h1 v1 h-1Z M13 16 h1 v1 h-1Z M28 16 h1 v1 h-1Z M29 16 h1 v1 h-1Z M31 16 h1 v1 h-1Z M32 16 h1 v1 h-1Z M35 16 h1 v1 h-1Z M36 16 h1 v1 h-1Z M7 17 h1 v1 h-1Z M9 17 h1 v1 h-1Z M13 17 h1 v1 h-1Z M27 17 h1 v1 h-1Z M28 17 h1 v1 h-1Z M30 17 h1 v1 h-1Z M33 17 h1 v1 h-1Z M34 17 h1 v1 h-1Z M36 17 h1 v1 h-1Z M4 18 h1 v1 h-1Z M6 18 h1 v1 h-1Z M8 18 h1 v1 h-1Z M9 18 h1 v1 h-1Z M11 18 h1 v1 h-1Z M12 18 h1 v1 h-1Z M13 18 h1 v1 h-1Z M28 18 h1 v1 h-1Z M30 18 h1 v1 h-1Z M31 18 h1 v1 h-1Z M32 18 h1 v1 h-1Z M33 18 h1 v1 h-1Z M35 18 h1 v1 h-1Z M6 19 h1 v1 h-1Z M8 19 h1 v1 h-1Z M11 19 h1 v1 h-1Z M12 19 h1 v1 h-1Z M13 19 h1 v1 h-1Z M27 19 h1 v1 h-1Z M29 19 h1 v1 h-1Z M32 19 h1 v1 h-1Z M33 19 h1 v1 h-1Z M34 19 h1 v1 h-1Z M35 19 h1 v1 h-1Z M4 20 h1 v1 h-1Z M6 20 h1 v1 h-1Z M7 20 h1 v1 h-1Z M9 20 h1 v1 h-1Z M11 20 h1 v1 h-1Z M12 20 h1 v1 h-1Z M27 20 h1 v1 h-1Z M29 20 h1 v1 h-1Z M31 20 h1 v1 h-1Z M32 20 h1 v1 h-1Z M6 21 h1 v1 h-1Z M9 21 h1 v1 h-1Z M11 21 h1 v1 h-1Z M13 21 h1 v1 h-1Z M27 21 h1 v1 h-1Z M28 21 h1 v1 h-1Z M30 21 h1 v1 h-1Z M36 21 h1 v1 h-1Z M4 22 h1 v1 h-1Z M5 22 h1 v1 h-1Z M7 22 h1 v1 h-1Z M12 22 h1 v1 h-1Z M31 22 h1 v1 h-1Z M34 22 h1 v1 h-1Z M35 22 h1 v1 h-1Z M4 23 h1 v1 h-1Z M5 23 h1 v1 h-1Z M12 23 h1 v1 h-1Z M13 23 h1 v1 h-1Z M27 23 h1 v1 h-1Z M28 23 h1 v1 h-1Z M29 23 h1 v1 h-1Z M30 23 h1 v1 h-1Z M31 23 h1 v1 h-1Z M32 23 h1 v1 h-1Z M33 23 h1 v1 h-1Z M34 23 h1 v1 h-1Z M35 23 h1 v1 h-1Z M36 23 h1 v1 h-1Z M6 24 h1 v1 h-1Z M8 24 h1 v1 h-1Z M11 24 h1 v1 h-1Z M28 24 h1 v1 h-1Z M29 24 h1 v1 h-1Z M32 24 h1 v1 h-1Z M33 24 h1 v1 h-1Z M4 25 h1 v1 h-1Z M5 25 h1 v1 h-1Z M7 25 h1 v1 h-1Z M13 25 h1 v1 h-1Z M27 25 h1 v1 h-1Z M30 25 h1 v1 h-1Z M35 25 h1 v1 h-1Z M36 25 h1 v1 h-1Z M4 26 h1 v1 h-1Z M6 26 h1 v1 h-1Z M9 26 h1 v1 h-1Z M11 26 h1 v1 h-1Z M32 26 h1 v1 h-1Z
M33 26 h1 v1 h-1Z M34 26 h1 v1 h-1Z M35 26 h1 v1 h-1Z M4 27 h1 v1 h-1Z M6 27 h1 v1 h-1Z M8 27 h1 v1 h-1Z M13 27 h1 v1 h-1Z M14 27 h1 v1 h-1Z M18 27 h1 v1 h-1Z M20 27 h1 v1 h-1Z M22 27 h1 v1 h-1Z M23 27 h1 v1 h-1Z M25 27 h1 v1 h-1Z M26 27 h1 v1 h-1Z M27 27 h1 v1 h-1Z M31 27 h1 v1 h-1Z M33 27 h1 v1 h-1Z M34 27 h1 v1 h-1Z M36 27 h1 v1 h-1Z M4 28 h1 v1 h-1Z M6 28 h1 v1 h-1Z M7 28 h1 v1 h-1Z M12 28 h1 v1 h-1Z M13 28 h1 v1 h-1Z M14 28 h1 v1 h-1Z M19 28 h1 v1 h-1Z M20 28 h1 v1 h-1Z M21 28 h1 v1 h-1Z M23 28 h1 v1 h-1Z M24 28 h1 v1 h-1Z M26 28 h1 v1 h-1Z M27 28 h1 v1 h-1Z M33 28 h1 v1 h-1Z M13 29 h1 v1 h-1Z M20 29 h1 v1 h-1Z M21 29 h1 v1 h-1Z M22 29 h1 v1 h-1Z M26 29 h1 v1 h-1Z M34 29 h1 v1 h-1Z M36 29 h1 v1 h-1Z M13 30 h1 v1 h-1Z M14 30 h1 v1 h-1Z M15 30 h1 v1 h-1Z M16 30 h1 v1 h-1Z M17 30 h1 v1 h-1Z M18 30 h1 v1 h-1Z M19 30 h1 v1 h-1Z M20 30 h1 v1 h-1Z M22 30 h1 v1 h-1Z M23 30 h1 v1 h-1Z M24 30 h1 v1 h-1Z M26 30 h1 v1 h-1Z M27 30 h1 v1 h-1Z M33 30 h1 v1 h-1Z M34 30 h1 v1 h-1Z M35 30 h1 v1 h-1Z M13 31 h1 v1 h-1Z M14 31 h1 v1 h-1Z M15 31 h1 v1 h-1Z M17 31 h1 v1 h-1Z M18 31 h1 v1 h-1Z M19 31 h1 v1 h-1Z M21 31 h1 v1 h-1Z M22 31 h1 v1 h-1Z M27 31 h1 v1 h-1Z M33 31 h1 v1 h-1Z M34 31 h1 v1 h-1Z M35 31 h1 v1 h-1Z M36 31 h1 v1 h-1Z M14 32 h1 v1 h-1Z M17 32 h1 v1 h-1Z M18 32 h1 v1 h-1Z M19 32 h1 v1 h-1Z M20 32 h1 v1 h-1Z M22 32 h1 v1 h-1Z M23 32 h1 v1 h-1Z M24 32 h1 v1 h-1Z M25 32 h1 v1 h-1Z M26 32 h1 v1 h-1Z M35 32 h1 v1 h-1Z M36 32 h1 v1 h-1Z M13 33 h1 v1 h-1Z M14 33 h1 v1 h-1Z M16 33 h1 v1 h-1Z M18 33 h1 v1 h-1Z M20 33 h1 v1 h-1Z M22 33 h1 v1 h-1Z M23 33 h1 v1 h-1Z M25 33 h1 v1 h-1Z M27 33 h1 v1 h-1Z M29 33 h1 v1 h-1Z M32 33 h1 v1 h-1Z M33 33 h1 v1 h-1Z M36 33 h1 v1 h-1Z M13 34 h1 v1 h-1Z M14 34 h1 v1 h-1Z M18 34 h1 v1 h-1Z M22 34 h1 v1 h-1Z M23 34 h1 v1 h-1Z M24 34 h1 v1 h-1Z
M25 34 h1 v1 h-1Z M26 34 h1 v1 h-1Z M28 34 h1 v1 h-1Z M29 34 h1 v1 h-1Z M30 34 h1 v1 h-1Z M13 35 h1 v1 h-1Z M14 35 h1 v1 h-1Z M16 35 h1 v1 h-1Z M17 35 h1 v1 h-1Z M18 35 h1 v1 h-1Z M20 35 h1 v1 h-1Z M21 35 h1 v1 h-1Z M22 35 h1 v1 h-1Z M23 35 h1 v1 h-1Z M29 35 h1 v1 h-1Z M31 35 h1 v1 h-1Z M34 35 h1 v1 h-1Z M13 36 h1 v1 h-1Z M18 36 h1 v1 h-1Z M19 36 h1 v1 h-1Z M21 36 h1 v1 h-1Z M24 36 h1 v1 h-1Z M27 36 h1 v1 h-1Z M28 36 h1 v1 h-1Z M29 36 h1 v1 h-1Z M35 36 h1 v1 h-1Z"/>
<path class="qr-finder-dark dark qrcode" d="M4 4 h1 v1 h-1Z M5 4 h1 v1 h-1Z M6 4 h1 v1 h-1Z M7 4 h1 v1 h-1Z M8 4 h1 v1 h-1Z M9 4 h1 v1 h-1Z M10 4 h1 v1 h-1Z M30 4 h1 v1 h-1Z M31 4 h1 v1 h-1Z M32 4 h1 v1 h-1Z M33 4 h1 v1 h-1Z M34 4 h1 v1 h-1Z M35 4 h1 v1 h-1Z M36 4 h1 v1 h-1Z M4 5 h1 v1 h-1Z M10 5 h1 v1 h-1Z M30 5 h1 v1 h-1Z M36 5 h1 v1 h-1Z M4 6 h1 v1 h-1Z M10 6 h1 v1 h-1Z M30 6 h1 v1 h-1Z M36 6 h1 v1 h-1Z M4 7 h1 v1 h-1Z M10 7 h1 v1 h-1Z M30 7 h1 v1 h-1Z M36 7 h1 v1 h-1Z M4 8 h1 v1 h-1Z M10 8 h1 v1 h-1Z M30 8 h1 v1 h-1Z M36 8 h1 v1 h-1Z M4 9 h1 v1 h-1Z M10 9 h1 v1 h-1Z M30 9 h1 v1 h-1Z M36 9 h1 v1 h-1Z M4 10 h1 v1 h-1Z M5 10 h1 v1 h-1Z M6 10 h1 v1 h-1Z M7 10 h1 v1 h-1Z M8 10 h1 v1 h-1Z M9 10 h1 v1 h-1Z M10 10 h1 v1 h-1Z M30 10 h1 v1 h-1Z M31 10 h1 v1 h-1Z M32 10 h1 v1 h-1Z M33 10 h1 v1 h-1Z M34 10 h1 v1 h-1Z M35 10 h1 v1 h-1Z M36 10 h1 v1 h-1Z M4 30 h1 v1 h-1Z M5 30 h1 v1 h-1Z M6 30 h1 v1 h-1Z M7 30 h1 v1 h-1Z M8 30 h1 v1 h-1Z M9 30 h1 v1 h-1Z M10 30 h1 v1 h-1Z M4 31 h1 v1 h-1Z M10 31 h1 v1 h-1Z M4 32 h1 v1 h-1Z M10 32 h1 v1 h-1Z M4 33 h1 v1 h-1Z M10 33 h1 v1 h-1Z M4 34 h1 v1 h-1Z M10 34 h1 v1 h-1Z M4 35 h1 v1 h-1Z M10 35 h1 v1 h-1Z M4 36 h1 v1 h-1Z M5 36 h1 v1 h-1Z M6 36 h1 v1 h-1Z M7 36 h1 v1 h-1Z M8 36 h1 v1 h-1Z M9 36 h1 v1 h-1Z M10 36 h1 v1 h-1Z"/>
<path class="qr-alignment-dark dark qrcode" d="M28 28 h1 v1 h-1Z M29 28 h1 v1 h-1Z M30 28 h1 v1 h-1Z M31 28 h1 v1 h-1Z M32 28 h1 v1 h-1Z M28 29 h1 v1 h-1Z M32 29 h1 v1 h-1Z M28 30 h1 v1 h-1Z M30 30 h1 v1 h-1Z M32 30 h1 v1 h-1Z M28 31 h1 v1 h-1Z M32 31 h1 v1 h-1Z M28 32 h1 v1 h-1Z M29 32 h1 v1 h-1Z M30 32 h1 v1 h-1Z M31 32 h1 v1 h-1Z M32 32 h1 v1 h-1Z"/>
<path class="qr-timing-dark dark qrcode" d="M12 10 h1 v1 h-1Z M14 10 h1 v1 h-1Z M16 10 h1 v1 h-1Z M18 10 h1 v1 h-1Z M20 10 h1 v1 h-1Z M22 10 h1 v1 h-1Z M24 10 h1 v1 h-1Z M26 10 h1 v1 h-1Z M28 10 h1 v1 h-1Z M10 12 h1 v1 h-1Z M10 14 h1 v1 h-1Z M10 16 h1 v1 h-1Z M10 18 h1 v1 h-1Z M10 20 h1 v1 h-1Z M10 22 h1 v1 h-1Z M10 24 h1 v1 h-1Z M10 26 h1 v1 h-1Z M10 28 h1 v1 h-1Z"/>
<path class="qr-format-dark dark qrcode" d="M12 4 h1 v1 h-1Z M12 5 h1 v1 h-1Z M12 6 h1 v1 h-1Z M12 9 h1 v1 h-1Z M12 11 h1 v1 h-1Z M6 12 h1 v1 h-1Z M7 12 h1 v1 h-1Z M8 12 h1 v1 h-1Z M12 12 h1 v1 h-1Z M29 12 h1 v1 h-1Z M30 12 h1 v1 h-1Z M31 12 h1 v1 h-1Z M34 12 h1 v1 h-1Z M35 12 h1 v1 h-1Z M36 12 h1 v1 h-1Z M12 32 h1 v1 h-1Z M12 33 h1 v1 h-1Z M12 34 h1 v1 h-1Z"/>
<path class="qr-finder-dot dark qrcode" d="M6 6 h1 v1 h-1Z M7 6 h1 v1 h-1Z M8 6 h1 v1 h-1Z M32 6 h1 v1 h-1Z M33 6 h1 v1 h-1Z M34 6 h1 v1 h-1Z M6 7 h1 v1 h-1Z M7 7 h1 v1 h-1Z M8 7 h1 v1 h-1Z M32 7 h1 v1 h-1Z M33 7 h1 v1 h-1Z M34 7 h1 v1 h-1Z M6 8 h1 v1 h-1Z M7 8 h1 v1 h-1Z M8 8 h1 v1 h-1Z M32 8 h1 v1 h-1Z M33 8 h1 v1 h-1Z M34 8 h1 v1 h-1Z M6 32 h1 v1 h-1Z M7 32 h1 v1 h-1Z M8 32 h1 v1 h-1Z M6 33 h1 v1 h-1Z M7 33 h1 v1 h-1Z M8 33 h1 v1 h-1Z M6 34 h1 v1 h-1Z M7 34 h1 v1 h-1Z M8 34 h1 v1 h-1Z"/>
</svg>
